<svg width="65" height="66" viewBox="0 0 65 66" fill="none" xmlns="http://www.w3.org/2000/svg">
<path d="M45.6264 11.5288H40.2586V6.16096H24.1551V11.5288H18.7873V6.16096C18.7873 3.20867 21.2028 0.793152 24.1551 0.793152H40.2586C43.2109 0.793152 45.6264 3.20867 45.6264 6.16096V11.5288ZM64.4137 22.2644V57.1551C64.4137 60.1074 61.9982 62.5229 59.0459 62.5229H56.362C56.362 64.1333 55.2884 65.2068 53.6781 65.2068H48.3103C46.6999 65.2068 45.6264 64.1333 45.6264 62.5229H18.7873C18.7873 64.1333 17.7138 65.2068 16.1034 65.2068H10.7356C9.12527 65.2068 8.05171 64.1333 8.05171 62.5229H5.36781C2.41551 62.5229 0 60.1074 0 57.1551V22.2644C0 19.3121 2.41551 16.8966 5.36781 16.8966H59.0459C61.9982 16.8966 64.4137 19.3121 64.4137 22.2644ZM10.7356 33C10.7356 35.9523 13.1511 38.3678 16.1034 38.3678C19.0557 38.3678 21.4712 35.9523 21.4712 33C21.4712 30.0477 19.0557 27.6322 16.1034 27.6322C13.1511 27.6322 10.7356 30.0477 10.7356 33ZM30.5965 49.1034L27.6442 41.5885L15.0299 46.4195L17.9822 53.9344L30.5965 49.1034ZM47.5051 42.3937L55.02 34.8787L43.7476 23.6063L36.2327 31.1213L47.5051 42.3937Z" fill="url(#paint0_linear_259_172)"/>
<defs>
<linearGradient id="paint0_linear_259_172" x1="32.2068" y1="0.793152" x2="42.8428" y2="64.3153" gradientUnits="userSpaceOnUse">
<stop stop-color="#C82BFF"/>
<stop offset="1" stop-color="#660BDD"/>
</linearGradient>
</defs>
</svg>
