<svg width="703" height="650" viewBox="0 0 703 650" fill="none" xmlns="http://www.w3.org/2000/svg">
<path d="M613.444 300.178C612.731 298.666 612.002 297.144 611.249 295.629C611.046 295.206 611.216 294.692 611.655 294.496C612.093 294.3 612.626 294.464 612.829 294.887C613.598 296.412 614.342 297.942 615.045 299.469C615.248 299.892 615.053 300.412 614.599 300.599C614.329 300.729 614.014 300.69 613.78 300.555C613.625 300.466 613.512 300.34 613.428 300.169L613.444 300.178ZM610.519 290.354C609.732 288.86 608.929 287.357 608.101 285.86C607.873 285.443 607.34 285.279 606.899 285.514C606.467 285.734 606.312 286.257 606.54 286.674C607.353 288.162 608.165 289.65 608.937 291.135C609.015 291.282 609.127 291.408 609.267 291.489C609.517 291.632 609.84 291.656 610.12 291.511C610.553 291.291 610.738 290.786 610.51 290.369L610.519 290.354ZM624.866 328.851C625.069 328.968 625.318 329.009 625.576 328.934C626.043 328.795 626.316 328.32 626.172 327.869C625.661 326.27 625.135 324.661 624.593 323.043C624.449 322.593 623.938 322.36 623.471 322.499C623.005 322.638 622.763 323.131 622.907 323.581C623.458 325.184 623.969 326.783 624.464 328.374C624.52 328.59 624.67 328.758 624.857 328.866L624.866 328.851ZM537.037 457.974C536.272 456.513 535.509 455.013 534.75 453.474C534.547 453.051 534.023 452.872 533.569 453.059C533.131 453.255 532.945 453.76 533.139 454.198C533.905 455.761 534.674 457.285 535.439 458.746C535.517 458.893 535.639 459.004 535.779 459.085C536.028 459.228 536.352 459.252 536.632 459.107C537.064 458.887 537.234 458.373 537.022 457.965L537.037 457.974ZM605.571 281.444C604.724 279.977 603.853 278.516 602.957 277.062C602.704 276.651 602.168 276.525 601.751 276.754C601.326 276.999 601.196 277.515 601.433 277.917C602.314 279.363 603.185 280.824 604.026 282.267C604.113 282.399 604.219 282.501 604.344 282.573C604.609 282.725 604.942 282.734 605.221 282.589C605.638 282.36 605.793 281.837 605.555 281.435L605.571 281.444ZM621.597 319.277C621.815 319.403 622.089 319.438 622.341 319.339C622.802 319.176 623.034 318.698 622.881 318.263C622.295 316.681 621.71 315.1 621.084 313.515C620.906 313.086 620.395 312.853 619.95 313.025C619.49 313.188 619.264 313.69 619.442 314.119C620.052 315.694 620.647 317.261 621.232 318.842C621.298 319.043 621.441 319.187 621.613 319.286L621.597 319.277ZM530.622 444.262C530.444 443.833 529.924 443.615 529.479 443.787C529.034 443.959 528.808 444.461 528.986 444.89C529.643 446.492 530.328 448.05 531 449.559C531.085 449.73 531.213 449.865 531.353 449.946C531.587 450.08 531.886 450.11 532.147 449.995C532.601 449.808 532.802 449.312 532.608 448.874C531.936 447.365 531.267 445.817 530.616 444.238L530.622 444.262ZM617.528 309.426C617.603 309.612 617.73 309.747 617.886 309.836C618.12 309.971 618.403 309.992 618.671 309.901C619.116 309.729 619.342 309.227 619.164 308.798C618.519 307.243 617.834 305.686 617.149 304.129C616.971 303.7 616.442 303.497 615.988 303.684C615.533 303.871 615.332 304.367 615.526 304.805C616.22 306.347 616.889 307.895 617.518 309.441L617.528 309.426ZM526.983 434.842C526.814 434.398 526.328 434.159 525.852 434.313C525.392 434.476 525.144 434.945 525.303 435.404C525.886 437.025 526.487 438.615 527.075 440.158C527.15 440.344 527.284 440.503 527.44 440.592C527.658 440.718 527.932 440.754 528.2 440.663C528.66 440.5 528.886 439.998 528.708 439.569C528.12 438.026 527.525 436.46 526.943 434.839L526.983 434.842ZM626.65 442.206C626.133 443.826 625.595 445.413 625.035 446.966C624.899 447.357 625.061 447.777 625.42 447.984C625.467 448.011 625.529 448.047 625.576 448.074C626.027 448.232 626.534 447.994 626.698 447.558C627.268 445.989 627.825 444.372 628.351 442.738C628.499 442.293 628.243 441.819 627.766 441.667C627.305 441.523 626.805 441.786 626.656 442.23L626.65 442.206ZM623.22 451.673C622.585 453.245 621.904 454.789 621.225 456.295C621.039 456.698 621.199 457.157 621.573 457.373C621.604 457.391 621.635 457.409 621.666 457.427C622.115 457.624 622.634 457.434 622.823 456.992C623.536 455.465 624.202 453.911 624.856 452.309C625.036 451.883 624.807 451.363 624.356 451.205C623.898 451.023 623.4 451.246 623.211 451.688L623.22 451.673ZM600.243 272.703C599.328 271.278 598.398 269.845 597.442 268.417C597.18 268.021 596.635 267.911 596.225 268.164C595.814 268.417 595.7 268.943 595.962 269.339C596.902 270.757 597.842 272.176 598.741 273.592C598.813 273.715 598.929 273.802 599.038 273.865C599.302 274.017 599.66 274.02 599.95 273.86C600.36 273.607 600.49 273.09 600.237 272.679L600.243 272.703ZM629.388 432.525C628.984 434.169 628.548 435.794 628.106 437.396C628.004 437.765 628.186 438.155 628.513 438.344C628.575 438.38 628.653 438.425 628.734 438.431C629.204 438.559 629.689 438.288 629.822 437.834C630.273 436.217 630.709 434.592 631.107 432.924C631.224 432.462 630.934 432.009 630.454 431.896C629.975 431.782 629.505 432.062 629.388 432.525ZM619.018 460.816C618.234 462.322 617.418 463.81 616.599 465.235C616.357 465.626 616.505 466.139 616.925 466.382L616.941 466.391C617.362 466.633 617.903 466.476 618.139 466.061C618.976 464.606 619.801 463.103 620.604 461.567C620.824 461.143 620.636 460.627 620.213 460.424C619.773 460.211 619.248 460.377 619.028 460.801L619.018 460.816ZM630.492 427.634C630.415 427.998 630.59 428.364 630.902 428.543C630.98 428.588 631.073 428.642 631.179 428.642C631.653 428.731 632.131 428.436 632.224 427.979C632.578 426.348 632.896 424.674 633.197 422.992C633.274 422.526 632.959 422.08 632.476 422.005C631.994 421.931 631.53 422.235 631.454 422.701C631.161 424.368 630.822 426.009 630.492 427.634ZM634.212 387.718C634.212 388.025 634.387 388.289 634.637 388.432C634.777 388.513 634.936 388.564 635.107 388.561C635.596 388.557 635.984 388.169 635.98 387.697C635.955 386.03 635.908 384.331 635.836 382.637C635.816 382.157 635.404 381.797 634.922 381.825C634.424 381.844 634.051 382.241 634.08 382.706C634.152 384.4 634.202 386.061 634.227 387.727L634.212 387.718ZM633.474 407.793C633.441 408.12 633.628 408.432 633.909 408.594C634.018 408.657 634.146 408.689 634.283 408.707C634.768 408.742 635.194 408.396 635.246 407.937C635.392 406.267 635.522 404.588 635.646 402.885C635.683 402.416 635.299 402.011 634.814 401.976C634.328 401.941 633.908 402.311 633.872 402.78C633.757 404.468 633.636 406.132 633.484 407.778L633.474 407.793ZM562.959 488.395C561.541 487.578 560.142 486.628 558.758 485.586C558.38 485.307 557.814 485.368 557.525 485.732C557.227 486.111 557.3 486.643 557.677 486.921C559.124 488 560.585 488.985 562.066 489.838C562.486 490.081 563.034 489.947 563.276 489.557C563.527 489.151 563.405 488.631 562.984 488.389L562.959 488.395ZM542.104 466.728C541.226 465.345 540.346 463.899 539.493 462.408C539.256 462.006 538.714 461.857 538.297 462.086C537.88 462.315 537.726 462.838 537.963 463.24C538.838 464.764 539.734 466.219 540.618 467.626C540.69 467.749 540.805 467.835 540.914 467.898C541.179 468.051 541.537 468.053 541.826 467.894C542.237 467.641 542.366 467.124 542.113 466.713L542.104 466.728ZM582.348 492.797C580.664 492.989 578.983 493.04 577.29 492.942C576.804 492.906 576.385 493.277 576.348 493.745C576.33 494.082 576.512 494.369 576.776 494.522C576.901 494.594 577.029 494.627 577.166 494.645C578.94 494.749 580.767 494.701 582.541 494.499C583.017 494.447 583.368 494.017 583.314 493.558C583.245 493.089 582.814 492.76 582.338 492.812L582.348 492.797ZM633.024 418.731C633.506 418.805 633.963 418.477 634.024 418.002C634.267 416.347 634.503 414.668 634.699 412.986C634.751 412.526 634.402 412.1 633.925 412.05C633.433 411.991 633.007 412.337 632.956 412.797C632.76 414.479 632.542 416.128 632.284 417.774C632.232 418.132 632.41 418.459 632.706 418.629C632.799 418.683 632.918 418.731 633.039 418.74L633.024 418.731ZM635.876 397.836C635.941 396.16 635.975 394.466 635.993 392.763C636.005 392.301 635.612 391.911 635.123 391.915C634.634 391.919 634.24 392.283 634.244 392.755C634.235 394.442 634.195 396.112 634.114 397.779C634.105 398.1 634.271 398.379 634.551 398.541C634.676 398.613 634.819 398.655 634.966 398.657C635.461 398.677 635.864 398.298 635.876 397.836ZM601.841 484.736C601.52 484.367 600.978 484.32 600.596 484.63C599.251 485.71 597.88 486.695 596.484 487.584C596.074 487.837 595.96 488.362 596.237 488.767C596.319 488.875 596.409 488.968 596.518 489.031C596.799 489.193 597.157 489.195 597.455 489.02C598.91 488.105 600.333 487.069 601.723 485.952C602.095 485.657 602.153 485.119 601.832 484.751L601.841 484.736ZM615.17 469.286C614.727 469.011 614.22 469.147 613.953 469.544C613.003 470.975 612.041 472.358 611.045 473.661C610.762 474.049 610.844 474.565 611.237 474.853C611.253 474.862 611.284 474.879 611.299 474.888C611.689 475.113 612.193 475.016 612.457 474.658C613.472 473.326 614.462 471.897 615.421 470.451C615.672 470.045 615.565 469.535 615.154 469.277L615.17 469.286ZM572.317 492.197C570.711 491.822 569.091 491.296 567.505 490.648C567.047 490.465 566.543 490.664 566.339 491.097C566.162 491.485 566.322 491.944 566.696 492.16C566.727 492.178 566.758 492.196 566.805 492.223C568.478 492.901 570.2 493.465 571.894 493.871C572.374 493.984 572.843 493.704 572.961 493.241C573.078 492.778 572.788 492.325 572.308 492.212L572.317 492.197ZM609.12 477.487C608.752 477.194 608.179 477.231 607.875 477.586C606.757 478.879 605.57 480.113 604.399 481.253C604.048 481.581 604.055 482.116 604.395 482.454C604.458 482.49 604.511 482.541 604.573 482.577C604.916 482.775 605.367 482.729 605.65 482.443C606.864 481.266 608.054 479.994 609.215 478.664C609.529 478.294 609.481 477.757 609.113 477.463L609.12 477.487ZM593.246 490.389C593.043 489.966 592.504 489.777 592.072 489.998C590.527 490.718 588.925 491.325 587.351 491.784C586.884 491.923 586.611 492.398 586.755 492.849C586.821 493.05 586.961 493.233 587.148 493.34C587.351 493.457 587.6 493.499 587.858 493.423C589.532 492.939 591.218 492.299 592.847 491.546C593.286 491.35 593.481 490.83 593.253 490.413L593.246 490.389ZM631.378 347.494C631.026 345.843 630.65 344.198 630.257 342.544C630.138 342.088 629.68 341.803 629.191 341.909C628.718 342.024 628.424 342.466 628.534 342.938C628.935 344.577 629.297 346.213 629.642 347.84C629.705 348.08 629.852 348.287 630.054 348.403C630.241 348.511 630.465 348.559 630.689 348.504C631.169 348.413 631.473 347.956 631.378 347.494ZM548.019 474.93C546.996 473.647 545.969 472.3 544.97 470.909C544.698 470.528 544.144 470.433 543.734 470.686C543.339 470.948 543.24 471.483 543.512 471.863C544.533 473.288 545.581 474.668 546.627 475.984C546.702 476.068 546.786 476.137 546.879 476.191C547.175 476.361 547.583 476.351 547.869 476.129C548.258 475.843 548.316 475.305 548.019 474.93ZM627.709 338.567C627.896 338.674 628.145 338.716 628.369 338.661C628.842 338.546 629.131 338.08 629.011 337.624C628.585 335.991 628.133 334.364 627.666 332.729C627.547 332.272 627.055 332.009 626.572 332.139C626.1 332.254 625.827 332.729 625.961 333.194C626.438 334.815 626.874 336.433 627.31 338.051C627.366 338.267 627.522 338.459 627.709 338.567ZM635.205 372.524C635.16 372.049 634.74 371.705 634.248 371.748C633.756 371.791 633.399 372.197 633.444 372.671C633.59 374.347 633.737 376.022 633.837 377.671C633.846 377.962 634.031 378.211 634.264 378.346C634.42 378.435 634.588 378.471 634.784 378.462C635.267 378.434 635.649 378.022 635.604 377.547C635.498 375.875 635.361 374.184 635.199 372.5L635.205 372.524ZM633.351 368.314C633.506 368.404 633.706 368.457 633.896 368.424C634.372 368.372 634.738 367.951 634.669 367.483C634.472 365.819 634.26 364.147 634.017 362.457C633.948 361.988 633.508 361.674 633.032 361.726C632.547 361.793 632.221 362.217 632.275 362.676C632.511 364.342 632.723 366.015 632.914 367.654C632.948 367.939 633.111 368.155 633.344 368.29L633.351 368.314ZM554.907 482.347C553.706 481.247 552.506 480.045 551.326 478.774C550.996 478.42 550.445 478.388 550.078 478.707C549.711 479.026 549.678 479.558 550.009 479.912C551.21 481.216 552.458 482.445 553.696 483.586C553.758 483.622 553.795 483.664 553.858 483.7C554.2 483.898 554.652 483.852 554.944 483.551C555.279 483.214 555.256 482.671 554.907 482.347ZM632.385 352.459C632.29 351.997 631.826 351.689 631.347 351.78C630.868 351.871 630.557 352.304 630.642 352.781C630.954 354.429 631.256 356.092 631.527 357.737C631.571 358.008 631.727 358.199 631.945 358.325C632.117 358.424 632.325 358.463 632.531 358.438C633.016 358.371 633.336 357.923 633.266 357.455C633.005 355.795 632.702 354.131 632.385 352.459Z" fill="#F411CF"/>
<path d="M39.9575 184.434C39.6697 184.639 39.296 184.635 39.012 184.479C38.9016 184.419 38.8002 184.343 38.7325 184.245C37.6965 182.85 36.7101 181.442 35.7732 180.021C35.5113 179.616 35.6296 179.096 36.0501 178.844C36.4706 178.591 37.0089 178.705 37.2708 179.111C38.1693 180.491 39.14 181.89 40.1533 183.252C40.4332 183.627 40.3464 184.164 39.9575 184.434ZM105.136 67.9018C105.592 67.7294 105.807 67.223 105.62 66.7976C105.441 66.357 104.916 66.1494 104.475 66.3305C102.831 66.9589 101.218 67.6046 99.6366 68.2677C99.1957 68.4487 98.9806 68.9551 99.1682 69.3805C99.2474 69.565 99.3782 69.6973 99.5359 69.7839C99.7725 69.9138 100.056 69.9285 100.322 69.8324C101.894 69.1846 103.507 68.5389 105.127 67.917L105.136 67.9018ZM34.6738 174.804C33.8538 173.326 33.0923 171.82 32.4029 170.334C32.1995 169.9 31.6814 169.716 31.2405 169.897C30.7906 170.093 30.6002 170.593 30.7878 171.019C31.4908 172.553 32.2749 174.092 33.1174 175.602C33.1988 175.747 33.3228 175.856 33.4648 175.933C33.7172 176.072 34.0414 176.089 34.318 175.938C34.7453 175.71 34.9199 175.201 34.6828 174.789L34.6738 174.804ZM86.5541 75.0476C86.3417 74.6288 85.7899 74.4668 85.3716 74.6804C83.7837 75.4608 82.2363 76.2432 80.7205 77.043C80.2932 77.2718 80.1344 77.789 80.3715 78.2013C80.4528 78.3467 80.5769 78.455 80.7188 78.533C80.9712 78.6715 81.2954 78.6884 81.5721 78.538C83.0789 77.7534 84.6105 76.9623 86.1736 76.1885C86.6077 75.9836 86.7913 75.4599 86.5541 75.0476ZM29.0062 160.974C28.8771 160.52 28.397 160.237 27.9178 160.377C27.4475 160.501 27.1535 160.964 27.2984 161.427C27.736 163.057 28.2546 164.692 28.8474 166.307C28.9176 166.506 29.071 166.671 29.2445 166.766C29.4654 166.888 29.7243 166.909 29.9808 166.828C30.4442 166.68 30.6752 166.182 30.5213 165.735C29.942 164.167 29.446 162.565 29.022 160.983L29.0062 160.974ZM124.219 59.4802C122.532 60.0044 120.885 60.5308 119.238 61.0571C118.774 61.2056 118.528 61.6947 118.682 62.1419C118.752 62.3416 118.905 62.5064 119.079 62.6017C119.284 62.7142 119.558 62.7442 119.79 62.6699C121.421 62.1349 123.068 61.6086 124.731 61.0909C125.194 60.9424 125.457 60.4619 125.303 60.0148C125.149 59.5676 124.651 59.3144 124.187 59.4629L124.219 59.4802ZM54.0777 197.989C52.7744 196.87 51.5138 195.715 50.2938 194.561C49.9554 194.214 49.3769 194.239 49.0421 194.559C48.6983 194.894 48.7083 195.444 49.0646 195.76C50.2915 196.937 51.5926 198.095 52.9027 199.237C52.95 199.263 53.0041 199.313 53.0515 199.339C53.3985 199.53 53.8734 199.468 54.1497 199.176C54.4778 198.833 54.443 198.29 54.0867 197.973L54.0777 197.989ZM115.417 63.251C115.254 62.819 114.747 62.581 114.284 62.7295C112.626 63.3102 110.983 63.8995 109.366 64.4822C108.909 64.6546 108.687 65.1372 108.841 65.5843C108.92 65.7688 109.058 65.925 109.232 66.0202C109.452 66.1415 109.727 66.1714 109.993 66.0754C111.594 65.484 113.228 64.9099 114.886 64.3292C115.333 64.172 115.58 63.6829 115.426 63.2358L115.417 63.251ZM145.42 54.4779C145.291 54.0242 144.811 53.7405 144.341 53.8652C142.626 54.2939 140.952 54.7247 139.278 55.1555C138.808 55.2801 138.53 55.7519 138.659 56.2056C138.711 56.4358 138.88 56.6092 139.069 56.7132C139.259 56.8171 139.509 56.8536 139.731 56.7945C141.39 56.3551 143.064 55.9243 144.769 55.5108C145.24 55.3861 145.534 54.923 145.405 54.4693L145.42 54.4779ZM46.7054 190.979C45.5234 189.726 44.3909 188.46 43.3147 187.204C43.0101 186.835 42.4517 186.791 42.0696 187.085C41.6874 187.378 41.6412 187.917 41.9458 188.286C43.0287 189.565 44.1838 190.864 45.3973 192.135C45.4583 192.209 45.5371 192.252 45.616 192.295C45.9473 192.477 46.3637 192.444 46.6468 192.176C47.0064 191.85 47.0279 191.318 46.7054 190.979ZM129.739 59.6095C131.384 59.1223 133.044 58.6437 134.736 58.1825C135.207 58.0579 135.469 57.5774 135.356 57.1323C135.227 56.6786 134.729 56.4254 134.267 56.5348C132.566 57.0113 130.89 57.4812 129.245 57.9684C128.782 58.1169 128.513 58.5735 128.657 59.0359C128.719 59.2508 128.872 59.4156 129.061 59.5195C129.266 59.6321 129.516 59.6686 129.748 59.5943L129.739 59.6095ZM34.4435 118.224C34.8694 118.458 35.3892 118.32 35.6473 117.918C36.4911 116.488 37.4227 115.085 38.3859 113.7C38.6598 113.306 38.5507 112.783 38.1428 112.519C37.7416 112.278 37.1925 112.36 36.9186 112.753C35.9217 114.16 34.9789 115.617 34.1014 117.07C33.8591 117.48 33.9929 117.997 34.4188 118.231L34.4435 118.224ZM31.1663 126.862C31.7712 125.34 32.4662 123.808 33.2243 122.31C33.4351 121.882 33.2518 121.378 32.808 121.175C32.3641 120.971 31.8421 121.148 31.6313 121.576C30.8553 123.105 30.1491 124.691 29.5172 126.259C29.3649 126.658 29.5188 127.106 29.8974 127.313C29.929 127.331 29.9763 127.357 30.0079 127.374C30.4697 127.547 30.978 127.322 31.1483 126.892L31.1663 126.862ZM40.1953 109.817C40.1953 109.817 40.2742 109.861 40.3057 109.878C40.6843 110.086 41.1771 109.994 41.4399 109.655C42.4708 108.367 43.5759 107.06 44.7194 105.794C45.0316 105.441 44.9969 104.898 44.6316 104.597C44.2663 104.296 43.7036 104.329 43.3913 104.682C42.2299 105.978 41.1 107.292 40.0512 108.61C39.7457 108.986 39.83 109.516 40.2043 109.802L40.1953 109.817ZM46.9705 102.154C46.9705 102.154 47.0787 102.253 47.1418 102.288C47.4889 102.479 47.9232 102.415 48.2064 102.147C49.3771 100.977 50.6378 99.795 51.9121 98.6612C52.2716 98.3348 52.2932 97.8026 51.9548 97.4557C51.6165 97.1088 51.0649 97.088 50.7053 97.4144C49.4131 98.5787 48.1434 99.7755 46.939 100.968C46.5952 101.303 46.6052 101.852 46.9615 102.169L46.9705 102.154ZM90.0302 73.9338C90.2668 74.0637 90.582 74.0957 90.8496 73.9606C92.3926 73.2563 93.9604 72.5455 95.5687 71.8368C96.0185 71.6406 96.209 71.1407 96.0055 70.7066C95.8021 70.2726 95.284 70.0889 94.8341 70.2851C93.2101 70.9852 91.6423 71.696 90.0814 72.4307C89.6473 72.6356 89.4568 73.1355 89.6603 73.5696C89.7326 73.7301 89.8634 73.8624 90.0212 73.949L90.0302 73.9338ZM27.3152 151.201C27.2761 150.736 26.8567 150.385 26.3592 150.414C25.8776 150.452 25.5136 150.857 25.5438 151.337C25.6775 153.022 25.8991 154.735 26.1882 156.405C26.2382 156.674 26.4052 156.887 26.626 157.008C26.7996 157.103 27.009 157.138 27.2138 157.109C27.6976 157.032 28.0232 156.586 27.9346 156.135C27.6434 154.504 27.4354 152.838 27.3063 151.216L27.3152 151.201ZM62.7424 88.9726C62.8259 89.0789 62.9115 89.146 63.022 89.2067C63.3217 89.3712 63.6886 89.351 63.9674 89.1616C65.3456 88.2057 66.7643 87.2518 68.2235 86.3001C68.6283 86.0388 68.7308 85.5108 68.4599 85.1203C68.189 84.7299 67.6418 84.6309 67.2371 84.8923C65.7531 85.8505 64.3096 86.8109 62.9225 87.782C62.5335 88.052 62.4467 88.5887 62.7266 88.9639L62.7424 88.9726ZM29.5138 131.576C29.6525 131.128 29.3949 130.644 28.922 130.525C28.458 130.391 27.9722 130.649 27.8335 131.096C27.3278 132.733 26.9009 134.412 26.5574 136.057C26.4882 136.422 26.6713 136.785 26.9868 136.958C27.0656 137.001 27.1445 137.044 27.2413 137.057C27.7075 137.152 28.1797 136.847 28.2779 136.397C28.6193 134.792 29.035 133.166 29.5138 131.576ZM59.9727 90.9778C59.6681 90.6091 59.1187 90.5493 58.7455 90.8279C57.345 91.8925 55.985 92.9591 54.6656 94.0279C54.2992 94.3304 54.2529 94.8692 54.5665 95.2227C54.6274 95.2964 54.7131 95.3636 54.8078 95.4155C55.1233 95.5887 55.5307 95.5707 55.8206 95.3269C57.1153 94.2647 58.4505 93.2046 59.8421 92.1553C60.2242 91.8614 60.2862 91.3313 59.9974 90.9713L59.9727 90.9778ZM27.4767 141.297C27.5276 140.821 27.1846 140.411 26.6915 140.362C26.1984 140.313 25.7736 140.644 25.7227 141.119C25.539 142.812 25.4274 144.523 25.3969 146.239C25.3952 146.561 25.5668 146.836 25.8508 146.992C25.977 147.061 26.1211 147.1 26.2675 147.1C26.7627 147.11 27.1492 146.738 27.1596 146.26C27.1948 144.607 27.2952 142.95 27.4677 141.312L27.4767 141.297ZM77.3783 79.842C77.1411 79.4298 76.5961 79.2917 76.1598 79.5357C74.6239 80.405 73.1284 81.2764 71.6578 82.1413C71.2373 82.394 71.1189 82.9133 71.3809 83.319C71.4554 83.4405 71.5636 83.5402 71.6898 83.6095C71.958 83.7567 72.3069 83.767 72.5925 83.6014C74.0474 82.7279 75.5338 81.8717 77.045 81.009C77.4723 80.7801 77.6154 80.2543 77.3535 79.8486L77.3783 79.842ZM180.185 237.363C178.438 237.351 176.709 237.308 174.98 237.266C174.485 237.256 174.083 237.619 174.072 238.097C174.071 238.418 174.249 238.718 174.517 238.865C174.644 238.934 174.788 238.973 174.934 238.973C176.663 239.015 178.417 239.051 180.18 239.072C180.659 239.074 181.07 238.695 181.072 238.232C181.073 237.77 180.681 237.373 180.201 237.372L180.185 237.363ZM159.373 236.394C157.626 236.24 155.904 236.081 154.19 235.905C153.697 235.856 153.272 236.187 153.221 236.663C153.186 237.006 153.371 237.329 153.671 237.494C153.766 237.546 153.885 237.591 154.007 237.598C155.736 237.781 157.483 237.935 159.23 238.088C159.708 238.129 160.141 237.782 160.183 237.322C160.225 236.861 159.866 236.443 159.389 236.402L159.373 236.394ZM169.773 237.066C168.021 236.991 166.288 236.885 164.579 236.773C164.093 236.748 163.674 237.103 163.633 237.563C163.606 237.891 163.8 238.2 164.084 238.355C164.195 238.416 164.323 238.446 164.46 238.461C166.194 238.567 167.928 238.672 169.695 238.756C170.181 238.781 170.584 238.418 170.61 237.949C170.636 237.48 170.268 237.076 169.773 237.066ZM128.499 231.915C126.787 231.559 125.094 231.174 123.425 230.781C122.952 230.663 122.473 230.944 122.366 231.409C122.272 231.78 122.461 232.167 122.793 232.348C122.856 232.383 122.935 232.426 123.016 232.431C124.7 232.832 126.403 233.202 128.13 233.566C128.612 233.67 129.076 233.38 129.183 232.915C129.29 232.45 128.99 232.003 128.508 231.9L128.499 231.915ZM149.02 235.324C147.284 235.116 145.566 234.878 143.857 234.625C143.373 234.56 142.916 234.874 142.85 235.341C142.79 235.691 142.982 236.038 143.281 236.203C143.376 236.254 143.48 236.291 143.592 236.313C145.301 236.566 147.044 236.798 148.78 237.005C149.265 237.07 149.714 236.732 149.756 236.272C149.823 235.804 149.473 235.371 148.996 235.33L149.02 235.324ZM138.723 233.841C136.991 233.555 135.293 233.247 133.595 232.94C133.12 232.86 132.657 233.15 132.55 233.615C132.48 233.98 132.664 234.342 132.979 234.516C133.058 234.559 133.137 234.602 133.258 234.608C134.972 234.925 136.686 235.241 138.418 235.527C138.893 235.606 139.349 235.293 139.432 234.834C139.514 234.376 139.189 233.936 138.714 233.856L138.723 233.841ZM190.61 237.284C188.852 237.326 187.128 237.346 185.404 237.367C184.924 237.365 184.529 237.753 184.527 238.215C184.526 238.537 184.706 238.797 184.974 238.944C185.101 239.014 185.26 239.061 185.416 239.046C187.156 239.034 188.905 239.007 190.663 238.965C191.152 238.951 191.531 238.555 191.533 238.092C191.518 237.621 191.108 237.255 190.628 237.253L190.61 237.284ZM211.414 236.072C209.674 236.225 207.943 236.363 206.212 236.501C205.73 236.538 205.366 236.943 205.397 237.423C205.413 237.714 205.602 237.959 205.839 238.089C205.981 238.167 206.166 238.208 206.337 238.201C208.068 238.063 209.814 237.934 211.563 237.766C212.045 237.728 212.402 237.3 212.363 236.835C212.324 236.37 211.88 236.026 211.398 236.064L211.414 236.072ZM222.757 235.711C222.693 235.253 222.249 234.909 221.774 234.97C220.039 235.186 218.321 235.372 216.604 235.557C216.113 235.61 215.765 236.023 215.82 236.497C215.861 236.781 216.019 237.009 216.256 237.139C216.414 237.226 216.598 237.267 216.794 237.253C218.511 237.068 220.253 236.876 221.989 236.66C222.464 236.598 222.821 236.17 222.757 235.711ZM201.015 236.851C199.261 236.956 197.541 237.039 195.806 237.114C195.317 237.128 194.938 237.524 194.968 238.004C194.975 238.31 195.156 238.57 195.408 238.709C195.55 238.787 195.71 238.834 195.881 238.828C197.617 238.753 199.361 238.663 201.115 238.558C201.612 238.529 201.976 238.124 201.937 237.659C201.898 237.195 201.487 236.828 201.006 236.866L201.015 236.851ZM70.6984 209.994C69.2199 209.102 67.7752 208.188 66.3484 207.244C65.9426 206.94 65.3981 207.085 65.1332 207.463C64.8593 207.857 64.9683 208.38 65.3605 208.635C66.7873 209.58 68.2636 210.511 69.7578 211.412L69.7894 211.429C70.1995 211.655 70.7103 211.532 70.9752 211.154C71.2334 210.751 71.1086 210.22 70.7074 209.979L70.6984 209.994ZM175.36 49.0346C175.844 48.9578 176.154 48.5033 176.074 48.0365C175.985 47.5848 175.523 47.2707 175.04 47.3476C173.307 47.6655 171.599 47.977 169.906 48.297C169.429 48.3978 169.113 48.8284 169.208 49.3039C169.267 49.5579 169.418 49.7618 169.639 49.883C169.813 49.9783 170.038 50.0214 170.252 49.9775C171.944 49.6575 173.652 49.3461 175.385 49.0281L175.36 49.0346ZM164.762 49.3008C163.036 49.6427 161.326 49.9932 159.647 50.361C159.17 50.4618 158.86 50.9162 158.965 51.3765C159.024 51.6305 159.184 51.8192 159.389 51.9318C159.578 52.0357 159.788 52.0701 160.017 52.035C161.696 51.6671 163.397 51.3318 165.123 50.99C165.6 50.8892 165.901 50.45 165.806 49.9745C165.701 49.5142 165.23 49.2153 164.753 49.316L164.762 49.3008ZM118.382 229.524C116.699 229.084 115.026 228.628 113.377 228.166C112.913 228.033 112.427 228.29 112.289 228.737C112.17 229.116 112.342 229.532 112.689 229.723C112.752 229.757 112.799 229.783 112.871 229.803C114.536 230.273 116.225 230.737 117.923 231.186C118.396 231.305 118.882 231.048 119.005 230.591C119.128 230.135 118.846 229.658 118.389 229.548L118.382 229.524ZM79.6856 215.009C78.5004 214.399 77.3398 213.782 76.2041 213.158L75.1471 212.578C74.7887 212.3 74.1857 212.473 73.9433 212.884C73.701 213.295 73.8348 213.812 74.2607 214.045L75.3334 214.634C76.4849 215.266 77.6522 215.907 78.8623 216.511C79.2882 216.745 79.8259 216.577 80.0525 216.157C80.2948 215.746 80.1273 215.251 79.6856 215.009ZM62.1377 204.327C60.731 203.313 59.3739 202.286 58.0415 201.253C57.6672 200.967 57.1045 201 56.799 201.376C56.4778 201.744 56.5374 202.28 56.9274 202.575C58.2666 203.633 59.6553 204.677 61.0777 205.7C61.1093 205.717 61.1408 205.734 61.1724 205.752C61.551 205.96 62.0438 205.868 62.3155 205.513C62.6052 205.128 62.5209 204.598 62.1377 204.327ZM154.546 51.469C152.833 51.8586 151.121 52.2482 149.449 52.6399C148.979 52.7645 148.693 53.2125 148.798 53.6727C148.866 53.9115 149.01 54.0916 149.215 54.2041C149.405 54.3081 149.63 54.3511 149.853 54.2921C151.525 53.9004 153.221 53.5021 154.925 53.1277C155.402 53.0269 155.696 52.5638 155.591 52.1035C155.487 51.6432 155.007 51.3596 154.53 51.4603L154.546 51.469ZM98.6091 223.323C96.9849 222.713 95.3696 222.088 93.779 221.457C93.3262 221.269 92.811 221.469 92.6318 221.915C92.4547 222.321 92.6244 222.777 93.003 222.985C93.0345 223.002 93.0661 223.02 93.0976 223.037C94.695 223.692 96.3103 224.317 97.975 224.929C98.4369 225.102 98.9452 224.877 99.1155 224.447C99.2948 224.001 99.0777 223.52 98.6159 223.347L98.6091 223.323ZM108.413 226.67C106.759 226.145 105.106 225.62 103.479 225.05C103.024 224.901 102.516 225.125 102.362 225.564C102.209 225.964 102.397 226.389 102.76 226.589C102.807 226.615 102.854 226.641 102.902 226.667C104.537 227.222 106.197 227.771 107.875 228.289C108.33 228.438 108.832 228.19 108.995 227.735C109.15 227.296 108.892 226.812 108.437 226.663L108.413 226.67ZM186.372 46.296C186.293 45.8292 185.831 45.5151 185.362 45.6006C183.632 45.8795 181.901 46.1583 180.202 46.4545C179.718 46.5314 179.393 46.9772 179.488 47.4527C179.538 47.722 179.705 47.9345 179.926 48.0558C180.099 48.151 180.309 48.1854 180.514 48.1568C182.213 47.8606 183.919 47.5883 185.649 47.3094C186.133 47.2326 186.459 46.7868 186.37 46.3351L186.372 46.296ZM88.9982 219.437C87.403 218.742 85.8416 218.026 84.2981 217.279C83.8543 217.076 83.3323 217.253 83.1147 217.657C82.9129 218.07 83.0646 218.556 83.459 218.773L83.5063 218.799C85.0588 219.53 86.6517 220.264 88.2627 220.967C88.7065 221.17 89.2217 220.97 89.4325 220.541C89.6433 220.113 89.4263 219.631 88.9914 219.413L88.9982 219.437Z" fill="#872BFF"/>
<path d="M223.029 42.8481C227.62 42.145 233.117 40.5086 232.95 39.551C232.784 38.5934 227.042 38.6643 222.442 39.3826C222.023 39.455 221.613 39.5122 221.219 39.5781C220.721 39.1836 219.677 38.3688 218.345 37.3351C218.361 37.3438 218.392 37.3611 218.408 37.3697L219.646 37.1829C219.801 37.1675 219.9 37.0001 219.852 36.8329L219.657 35.6778C219.634 35.504 219.494 35.387 219.33 35.4177L218.092 35.6045C218.092 35.6045 217.975 35.6611 217.923 35.7134L216.481 35.9287C215.351 35.0467 214.12 34.0889 212.905 33.1397L214.118 32.9594C214.273 32.944 214.372 32.7766 214.324 32.6094L214.129 31.4542C214.106 31.2805 213.966 31.1635 213.802 31.1942L212.564 31.381C212.564 31.381 212.447 31.4376 212.395 31.4899L211.002 31.6921C207.909 29.2888 205.305 27.2952 205.193 27.2736C204.911 27.2198 203.104 27.5575 203.104 27.5575C202.67 27.6212 202.339 27.7217 202.337 27.7608C202.35 27.8086 202.832 27.7708 203.242 27.7136L208.203 33.3586C207.865 33.4352 207.631 33.5485 207.643 33.6354C207.661 33.7461 208.026 33.7651 208.444 33.6926L208.494 33.6795L209.464 34.7964C209.151 34.8665 208.917 34.9798 208.928 35.0667C208.947 35.1774 209.311 35.1963 209.73 35.1239L210.626 36.1193L211.026 36.9635C210.648 37.038 210.348 37.1558 210.36 37.2427C210.378 37.3534 210.743 37.3723 211.161 37.2999L211.177 37.3086L211.979 38.9579C211.601 39.0324 211.302 39.1502 211.329 39.2457C211.348 39.3564 211.712 39.3753 212.131 39.3029L212.859 40.8307C209.782 41.3378 208.567 41.5572 206.287 41.9174C203.992 42.2689 201.802 42.7593 199.977 43.2685C198.278 41.9727 194.952 39.3612 194.952 39.3612L193.647 39.4504L195.878 44.6245C195.487 44.7924 195.179 44.9255 194.976 45.0561C194.038 45.2663 193.46 45.4324 193.471 45.5192C193.483 45.6061 194.068 45.6051 195 45.5122C195.241 45.5639 195.605 45.5828 196.067 45.6146L195.598 51.2604L196.874 50.9736C196.874 50.9736 199.357 47.2595 200.515 45.5786C202.357 45.5015 204.477 45.3762 206.723 45.1789C209.568 44.7461 210.828 44.5918 213.45 44.218L213.244 45.8777C212.801 45.9567 212.477 46.0811 212.495 46.1918C212.506 46.2787 212.822 46.3107 213.222 46.2687L212.998 48.1001L212.983 48.0914C212.539 48.1704 212.206 48.31 212.234 48.4055C212.245 48.4924 212.576 48.5331 212.961 48.4824L212.861 49.3948L212.346 50.6229C211.911 50.6867 211.578 50.8262 211.597 50.937C211.608 51.0238 211.858 51.0603 212.193 51.0228L211.622 52.3813L211.59 52.364C211.147 52.443 210.814 52.5825 210.832 52.6933C210.844 52.7801 211.118 52.8101 211.454 52.7726L208.545 59.6172C208.142 59.6983 207.665 59.799 207.663 59.8381C207.676 59.8859 208.018 59.8723 208.453 59.8085C208.453 59.8085 210.294 59.5903 210.521 59.453C210.613 59.4029 212.445 56.7216 214.623 53.525L216.016 53.3228C216.016 53.3228 216.142 53.392 216.207 53.3876L217.445 53.2008C217.6 53.1853 217.699 53.0179 217.652 52.8508L217.456 51.6956C217.433 51.5219 217.293 51.4048 217.129 51.4355L215.916 51.6158C216.767 50.3502 217.617 49.0846 218.423 47.8951L219.866 47.6797C219.866 47.6797 219.992 47.749 220.057 47.7446L221.295 47.5578C221.451 47.5423 221.549 47.3749 221.502 47.2077L221.306 46.0526C221.283 45.8789 221.143 45.7618 220.979 45.7925L219.741 45.9793C219.741 45.9793 219.723 46.0097 219.674 46.0229C220.603 44.6594 221.322 43.583 221.676 43.0524C222.07 42.9866 222.48 42.9294 222.914 42.8656L223.029 42.8481Z" fill="#872BFF"/>
<path d="M576.274 240.288C573.45 236.723 569.331 232.859 568.529 233.437C567.733 234.04 570.541 238.86 573.365 242.426C573.624 242.758 573.877 243.067 574.13 243.376C574.01 243.98 573.763 245.266 573.458 246.885C573.443 246.876 573.462 246.846 573.44 246.813L572.675 245.863C572.578 245.746 572.392 245.74 572.246 245.839L571.279 246.547C571.133 246.646 571.102 246.832 571.199 246.949L571.963 247.9C571.963 247.9 572.072 247.963 572.135 247.999L573.009 249.114C572.747 250.493 572.451 251.995 572.174 253.467L571.425 252.526C571.328 252.409 571.141 252.403 570.995 252.503L570.029 253.21C569.883 253.31 569.852 253.496 569.949 253.613L570.713 254.563C570.713 254.563 570.822 254.626 570.885 254.662L571.737 255.745C571.028 259.518 570.45 262.672 570.475 262.768C570.544 263.032 571.723 264.406 571.723 264.406C571.982 264.738 572.232 264.984 572.275 264.948C572.294 264.918 572.047 264.531 571.804 264.207L574.585 257.325C574.809 257.577 575.034 257.726 575.087 257.675C575.174 257.603 575.027 257.294 574.768 256.961L574.736 256.943L575.291 255.57C575.509 255.797 575.709 255.953 575.786 255.896C575.873 255.824 575.726 255.515 575.467 255.182L575.963 253.938L576.54 253.21C576.787 253.495 577.039 253.701 577.126 253.629C577.213 253.557 577.067 253.248 576.807 252.915L576.792 252.906L577.941 251.426C578.187 251.711 578.433 251.894 578.511 251.837C578.598 251.764 578.451 251.455 578.192 251.123L578.177 251.114L579.226 249.76C581.157 252.138 581.941 253.058 583.342 254.825C584.759 256.6 586.253 258.216 587.591 259.538C587.212 261.583 586.414 265.672 586.414 265.672L587.129 266.737L590.781 262.375C591.111 262.627 591.398 262.813 591.616 262.938C592.262 263.637 592.686 264.045 592.754 264.002C592.832 263.945 592.545 263.453 592.033 262.709C591.961 262.484 591.823 262.16 591.611 261.752L596.966 259.454L596.086 258.518C596.086 258.518 591.513 258.188 589.443 258.014C588.503 256.494 587.36 254.754 586.133 252.945C584.376 250.729 583.63 249.749 582.048 247.695L583.659 247.073C583.918 247.406 584.202 247.631 584.289 247.558C584.366 247.501 584.241 247.225 584.014 246.91L585.793 246.222L585.808 246.231C586.067 246.564 586.351 246.789 586.438 246.716C586.516 246.659 586.4 246.368 586.163 246.068L587.052 245.724L588.431 245.58C588.69 245.913 588.974 246.138 589.061 246.066C589.138 246.009 589.041 245.789 588.866 245.526L590.376 245.376L590.407 245.393C590.657 245.741 590.95 245.951 591.027 245.894C591.105 245.837 591.002 245.594 590.811 245.321L598.427 244.528C598.679 244.837 599.01 245.191 599.044 245.17C599.088 245.134 598.907 244.846 598.648 244.513C598.648 244.513 597.605 243.055 597.356 242.912C597.262 242.858 593.947 242.579 589.999 242.262L589.147 241.179C589.147 241.179 589.15 241.038 589.113 240.996L588.348 240.046C588.251 239.929 588.064 239.923 587.918 240.023L586.952 240.73C586.806 240.83 586.775 241.016 586.872 241.133L587.621 242.074C586.067 241.954 584.498 241.825 583.041 241.72L582.167 240.604C582.167 240.604 582.17 240.463 582.133 240.421L581.368 239.47C581.271 239.353 581.085 239.348 580.939 239.447L579.972 240.155C579.826 240.254 579.795 240.44 579.892 240.557L580.656 241.508C580.656 241.508 580.703 241.535 580.719 241.544C579.044 241.415 577.708 241.318 577.061 241.271C576.808 240.963 576.565 240.639 576.306 240.306L576.274 240.288Z" fill="#F411CF"/>
<g filter="url(#filter0_dddd_363_565)">
<rect width="52.4097" height="52.3045" rx="26.1523" transform="matrix(0.178583 -0.983925 0.98379 0.179327 410.515 65.1348)" fill="#FACD49"/>
<path d="M435.309 32.5435L450.613 41.3296C450.994 41.5425 451.299 41.8686 451.485 42.2623C451.67 42.6559 451.727 43.0971 451.648 43.524C451.576 43.9472 451.374 44.3374 451.07 44.6412C450.766 44.9449 450.375 45.1472 449.95 45.2202L443.884 46.3528L442.588 44.4906L440.491 41.4797C440.333 41.252 440.09 41.0961 439.816 41.0462C439.542 40.9964 439.26 41.0566 439.032 41.2138C438.804 41.3709 438.648 41.6121 438.598 41.8842C438.549 42.1564 438.61 42.4372 438.769 42.6649L440.865 45.6757L442.165 47.5806L438.954 52.8123C438.751 53.2095 438.424 53.5306 438.022 53.728C437.62 53.9253 437.164 53.9884 436.723 53.9079C436.281 53.8274 435.877 53.6076 435.57 53.2811C435.263 52.9545 435.07 52.5386 435.019 52.0949L432.143 34.7218C432.056 34.3207 432.091 33.9035 432.243 33.5227C432.394 33.1418 432.655 32.8144 432.994 32.5815C433.332 32.3487 433.733 32.2208 434.145 32.214C434.557 32.2073 434.962 32.3219 435.309 32.5435Z" fill="white"/>
</g>
<defs>
<filter id="filter0_dddd_363_565" x="401.101" y="11.4755" width="79.6445" height="95.4655" filterUnits="userSpaceOnUse" color-interpolation-filters="sRGB">
<feFlood flood-opacity="0" result="BackgroundImageFix"/>
<feColorMatrix in="SourceAlpha" type="matrix" values="0 0 0 0 0 0 0 0 0 0 0 0 0 0 0 0 0 0 127 0" result="hardAlpha"/>
<feOffset dy="1.04602"/>
<feGaussianBlur stdDeviation="1.56903"/>
<feColorMatrix type="matrix" values="0 0 0 0 0.54902 0 0 0 0 0.54902 0 0 0 0 0.54902 0 0 0 0.1 0"/>
<feBlend mode="normal" in2="BackgroundImageFix" result="effect1_dropShadow_363_565"/>
<feColorMatrix in="SourceAlpha" type="matrix" values="0 0 0 0 0 0 0 0 0 0 0 0 0 0 0 0 0 0 127 0" result="hardAlpha"/>
<feOffset dy="6.27611"/>
<feGaussianBlur stdDeviation="3.13806"/>
<feColorMatrix type="matrix" values="0 0 0 0 0.54902 0 0 0 0 0.54902 0 0 0 0 0.54902 0 0 0 0.09 0"/>
<feBlend mode="normal" in2="effect1_dropShadow_363_565" result="effect2_dropShadow_363_565"/>
<feColorMatrix in="SourceAlpha" type="matrix" values="0 0 0 0 0 0 0 0 0 0 0 0 0 0 0 0 0 0 127 0" result="hardAlpha"/>
<feOffset dy="13.5982"/>
<feGaussianBlur stdDeviation="4.18408"/>
<feColorMatrix type="matrix" values="0 0 0 0 0.54902 0 0 0 0 0.54902 0 0 0 0 0.54902 0 0 0 0.05 0"/>
<feBlend mode="normal" in2="effect2_dropShadow_363_565" result="effect3_dropShadow_363_565"/>
<feColorMatrix in="SourceAlpha" type="matrix" values="0 0 0 0 0 0 0 0 0 0 0 0 0 0 0 0 0 0 127 0" result="hardAlpha"/>
<feOffset dy="23.0124"/>
<feGaussianBlur stdDeviation="4.70709"/>
<feColorMatrix type="matrix" values="0 0 0 0 0.54902 0 0 0 0 0.54902 0 0 0 0 0.54902 0 0 0 0.01 0"/>
<feBlend mode="normal" in2="effect3_dropShadow_363_565" result="effect4_dropShadow_363_565"/>
<feBlend mode="normal" in="SourceGraphic" in2="effect4_dropShadow_363_565" result="shape"/>
</filter>
</defs>
</svg>
